<svg width="297" height="293" viewBox="0 0 297 293" version="1.1" xmlns="http://www.w3.org/2000/svg" xmlns:xlink="http://www.w3.org/1999/xlink">
<title>Education</title>
<desc>Created using Figma</desc>
<g id="Canvas" transform="translate(1327 35)">
<g id="Education">
<g id="Book 2">
<g id="Vector">
<use xlink:href="#path0_fill" transform="translate(-1327 177.793)" fill="#7D2D00"/>
</g>
<g id="Vector 2">
<use xlink:href="#path1_fill" transform="translate(-1321.83 187.615)" fill="#DBDBDB"/>
</g>
<g id="Vector 2.1">
<use xlink:href="#path2_fill" transform="translate(-1320.15 187.615)" fill="#CCCCCC"/>
</g>
</g>
<g id="Group 2">
<g id="Vector">
<use xlink:href="#path3_fill" transform="translate(-1320.15 33.7486)"/>
<use xlink:href="#path3_fill" transform="translate(-1320.15 33.7486)" fill="url(#paint4_linear)"/>
</g>
<g id="Microphone">
<g id="Micro">
<use xlink:href="#path4_fill" transform="translate(-1311.87 -35)" fill="#E6E6E6"/>
</g>
<g id="Group">
<g id="Rectangle">
<use xlink:href="#path5_fill" transform="translate(-1308.18 4.28492)"/>
<use xlink:href="#path5_fill" transform="translate(-1308.18 4.28492)" fill="url(#paint7_linear)"/>
</g>
<g id="Rectangle">
<use xlink:href="#path5_fill" transform="translate(-1308.18 30.4749)"/>
<use xlink:href="#path5_fill" transform="translate(-1308.18 30.4749)" fill="url(#paint9_linear)"/>
</g>
<g id="Rectangle">
<use xlink:href="#path5_fill" transform="translate(-1308.18 43.5698)"/>
<use xlink:href="#path5_fill" transform="translate(-1308.18 43.5698)" fill="url(#paint11_linear)"/>
</g>
<g id="Rectangle">
<use xlink:href="#path5_fill" transform="translate(-1308.18 56.6648)"/>
<use xlink:href="#path5_fill" transform="translate(-1308.18 56.6648)" fill="url(#paint13_linear)"/>
</g>
<g id="Rectangle">
<use xlink:href="#path6_fill" transform="translate(-1299.21 69.7598)"/>
<use xlink:href="#path6_fill" transform="translate(-1299.21 69.7598)" fill="url(#paint15_linear)"/>
</g>
<g id="Rectangle">
<use xlink:href="#path7_fill" transform="translate(-1287.24 69.7598)"/>
<use xlink:href="#path7_fill" transform="translate(-1287.24 69.7598)" fill="url(#paint17_linear)"/>
</g>
<g id="Rectangle">
<use xlink:href="#path7_fill" transform="translate(-1275.28 69.7598)"/>
<use xlink:href="#path7_fill" transform="translate(-1275.28 69.7598)" fill="url(#paint19_linear)"/>
</g>
<g id="Rectangle">
<use xlink:href="#path7_fill" transform="translate(-1263.31 69.7598)"/>
<use xlink:href="#path7_fill" transform="translate(-1263.31 69.7598)" fill="url(#paint21_linear)"/>
</g>
<g id="Rectangle">
<use xlink:href="#path6_fill" transform="translate(-1251.35 69.7598)"/>
<use xlink:href="#path6_fill" transform="translate(-1251.35 69.7598)" fill="url(#paint23_linear)"/>
</g>
<g id="Rectangle">
<use xlink:href="#path6_fill" transform="translate(-1299.21 -18.6313)"/>
<use xlink:href="#path6_fill" transform="translate(-1299.21 -18.6313)" fill="url(#paint25_linear)"/>
</g>
<g id="Rectangle">
<use xlink:href="#path7_fill" transform="translate(-1287.24 -25.1788)"/>
<use xlink:href="#path7_fill" transform="translate(-1287.24 -25.1788)" fill="url(#paint27_linear)"/>
</g>
<g id="Rectangle">
<use xlink:href="#path7_fill" transform="translate(-1275.28 -25.1788)"/>
<use xlink:href="#path7_fill" transform="translate(-1275.28 -25.1788)" fill="url(#paint29_linear)"/>
</g>
<g id="Rectangle">
<use xlink:href="#path7_fill" transform="translate(-1263.31 -25.1788)"/>
<use xlink:href="#path7_fill" transform="translate(-1263.31 -25.1788)" fill="url(#paint31_linear)"/>
</g>
<g id="Rectangle">
<use xlink:href="#path6_fill" transform="translate(-1251.35 -18.6313)"/>
<use xlink:href="#path6_fill" transform="translate(-1251.35 -18.6313)" fill="url(#paint33_linear)"/>
</g>
<g id="Rectangle">
<use xlink:href="#path5_fill" transform="translate(-1308.18 17.3799)"/>
<use xlink:href="#path5_fill" transform="translate(-1308.18 17.3799)" fill="url(#paint35_linear)"/>
</g>
</g>
</g>
<g id="Vector 2">
<use xlink:href="#path8_fill" transform="translate(-1320.15 120.503)"/>
<use xlink:href="#path8_fill" transform="translate(-1320.15 120.503)" fill="url(#paint37_linear)"/>
</g>
</g>
<g id="Group 3">
<g id="Vector 2">
<use xlink:href="#path9_fill" transform="translate(-1254.34 33.7486)" fill="#18733E"/>
<use xlink:href="#path9_fill" transform="translate(-1254.34 33.7486)" fill="url(#paint39_linear)"/>
</g>
<g id="Vector">
<use xlink:href="#path10_fill" transform="translate(-1230.51 64.7445)" fill="#BF0D0D"/>
</g>
<g id="Ellipse">
<use xlink:href="#path11_fill" transform="matrix(0.760028 -0.64989 0.581006 0.813899 -1215.45 91.7884)" fill="#E84141"/>
</g>
<g id="Vector">
<use xlink:href="#path12_fill" transform="translate(-1173.58 64.8492)" fill="#940909"/>
</g>
</g>
</g>
</g>
<defs>
<linearGradient id="paint4_linear" x1="0" y1="0" x2="1" y2="0" gradientUnits="userSpaceOnUse" gradientTransform="matrix(5.67789e-15 93.5498 -92.727 5.72827e-15 92.727 -5.72827e-15)">
<stop offset="0" stop-color="#7A7A7A"/>
<stop offset="1" stop-color="#FFFFFF" stop-opacity="0"/>
</linearGradient>
<linearGradient id="paint7_linear" x1="0" y1="0" x2="1" y2="0" gradientUnits="userSpaceOnUse" gradientTransform="matrix(4.21263e-15 6.54749 -68.7975 4.00918e-16 68.7975 -4.00918e-16)">
<stop offset="0.364641" stop-color="#1C1C1C"/>
<stop offset="0.690608" stop-color="#FFFFFF" stop-opacity="0"/>
</linearGradient>
<linearGradient id="paint9_linear" x1="0" y1="0" x2="1" y2="0" gradientUnits="userSpaceOnUse" gradientTransform="matrix(4.21263e-15 6.54749 -68.7975 4.00918e-16 68.7975 -4.00918e-16)">
<stop offset="0.364641" stop-color="#1C1C1C"/>
<stop offset="0.690608" stop-color="#FFFFFF" stop-opacity="0"/>
</linearGradient>
<linearGradient id="paint11_linear" x1="0" y1="0" x2="1" y2="0" gradientUnits="userSpaceOnUse" gradientTransform="matrix(4.21263e-15 6.54749 -68.7975 4.00918e-16 68.7975 -4.00918e-16)">
<stop offset="0.364641" stop-color="#1C1C1C"/>
<stop offset="0.690608" stop-color="#FFFFFF" stop-opacity="0"/>
</linearGradient>
<linearGradient id="paint13_linear" x1="0" y1="0" x2="1" y2="0" gradientUnits="userSpaceOnUse" gradientTransform="matrix(4.21263e-15 6.54749 -68.7975 4.00918e-16 68.7975 -4.00918e-16)">
<stop offset="0.364641" stop-color="#1C1C1C"/>
<stop offset="0.690608" stop-color="#FFFFFF" stop-opacity="0"/>
</linearGradient>
<linearGradient id="paint15_linear" x1="0" y1="0" x2="1" y2="0" gradientUnits="userSpaceOnUse" gradientTransform="matrix(3.66316e-16 16.3687 -5.98239 1.00229e-15 5.98239 -1.00229e-15)">
<stop offset="0"/>
<stop offset="1" stop-color="#FFFFFF" stop-opacity="0"/>
</linearGradient>
<linearGradient id="paint17_linear" x1="0" y1="0" x2="1" y2="0" gradientUnits="userSpaceOnUse" gradientTransform="matrix(3.66316e-16 22.9162 -5.98239 1.40321e-15 5.98239 -1.40321e-15)">
<stop offset="0"/>
<stop offset="1" stop-color="#FFFFFF" stop-opacity="0"/>
</linearGradient>
<linearGradient id="paint19_linear" x1="0" y1="0" x2="1" y2="0" gradientUnits="userSpaceOnUse" gradientTransform="matrix(3.66316e-16 22.9162 -5.98239 1.40321e-15 5.98239 -1.40321e-15)">
<stop offset="0"/>
<stop offset="1" stop-color="#FFFFFF" stop-opacity="0"/>
</linearGradient>
<linearGradient id="paint21_linear" x1="0" y1="0" x2="1" y2="0" gradientUnits="userSpaceOnUse" gradientTransform="matrix(3.66316e-16 22.9162 -5.98239 1.40321e-15 5.98239 -1.40321e-15)">
<stop offset="0"/>
<stop offset="1" stop-color="#FFFFFF" stop-opacity="0"/>
</linearGradient>
<linearGradient id="paint23_linear" x1="0" y1="0" x2="1" y2="0" gradientUnits="userSpaceOnUse" gradientTransform="matrix(3.66316e-16 16.3687 -5.98239 1.00229e-15 5.98239 -1.00229e-15)">
<stop offset="0"/>
<stop offset="1" stop-color="#FFFFFF" stop-opacity="0"/>
</linearGradient>
<linearGradient id="paint25_linear" x1="0" y1="0" x2="1" y2="0" gradientUnits="userSpaceOnUse" gradientTransform="matrix(3.66316e-16 16.3687 -5.98239 1.00229e-15 5.98239 -1.00229e-15)">
<stop offset="0.292818" stop-color="#242424"/>
<stop offset="0.845304" stop-color="#FFFFFF" stop-opacity="0"/>
</linearGradient>
<linearGradient id="paint27_linear" x1="0" y1="0" x2="1" y2="0" gradientUnits="userSpaceOnUse" gradientTransform="matrix(3.66316e-16 22.9162 -5.98239 1.40321e-15 5.98239 -1.40321e-15)">
<stop offset="0.292818" stop-color="#242424"/>
<stop offset="0.845304" stop-color="#FFFFFF" stop-opacity="0"/>
</linearGradient>
<linearGradient id="paint29_linear" x1="0" y1="0" x2="1" y2="0" gradientUnits="userSpaceOnUse" gradientTransform="matrix(3.66316e-16 22.9162 -5.98239 1.40321e-15 5.98239 -1.40321e-15)">
<stop offset="0.292818" stop-color="#242424"/>
<stop offset="0.845304" stop-color="#FFFFFF" stop-opacity="0"/>
</linearGradient>
<linearGradient id="paint31_linear" x1="0" y1="0" x2="1" y2="0" gradientUnits="userSpaceOnUse" gradientTransform="matrix(3.66316e-16 22.9162 -5.98239 1.40321e-15 5.98239 -1.40321e-15)">
<stop offset="0.292818" stop-color="#242424"/>
<stop offset="0.845304" stop-color="#FFFFFF" stop-opacity="0"/>
</linearGradient>
<linearGradient id="paint33_linear" x1="0" y1="0" x2="1" y2="0" gradientUnits="userSpaceOnUse" gradientTransform="matrix(3.66316e-16 16.3687 -5.98239 1.00229e-15 5.98239 -1.00229e-15)">
<stop offset="0.292818" stop-color="#242424"/>
<stop offset="0.845304" stop-color="#FFFFFF" stop-opacity="0"/>
</linearGradient>
<linearGradient id="paint35_linear" x1="0" y1="0" x2="1" y2="0" gradientUnits="userSpaceOnUse" gradientTransform="matrix(4.21263e-15 6.54749 -68.7975 4.00918e-16 68.7975 -4.00918e-16)">
<stop offset="0.364641" stop-color="#1C1C1C"/>
<stop offset="0.690608" stop-color="#FFFFFF" stop-opacity="0"/>
</linearGradient>
<linearGradient id="paint37_linear" x1="0" y1="0" x2="1" y2="0" gradientUnits="userSpaceOnUse" gradientTransform="matrix(5.67789e-15 57.2905 -92.727 3.50803e-15 92.727 -3.50803e-15)">
<stop offset="0"/>
<stop offset="1" stop-color="#FFFFFF" stop-opacity="0"/>
</linearGradient>
<linearGradient id="paint39_linear" x1="0" y1="0" x2="1" y2="0" gradientUnits="userSpaceOnUse" gradientTransform="matrix(4.7621e-15 32.7374 -77.771 2.00459e-15 77.771 -2.00459e-15)">
<stop offset="0" stop-color="#46EB8C"/>
<stop offset="1" stop-color="#FFFFFF" stop-opacity="0"/>
</linearGradient>
<path id="path0_fill" d="M 15.3321 0L 296.504 0L 296.491 9.82123L 293.382 9.82123C 287.296 33.296 290.283 57.3703 294.021 72.0223L 296.504 72.0223L 296.504 80.2067L 15.3321 80.2067C -5.11063 80.2067 -5.11078 0 15.3321 0Z"/>
<path id="path1_fill" d="M 15.1652 1.63687L 290.994 0C 283.547 24.5531 288.849 50.743 291.828 62.2011L 15.1656 62.2011C -4.3005 62.2011 -5.79595 1.63687 15.1652 1.63687Z"/>
<path id="path2_fill" d="M 12.2421 0.430756L 289.308 0C 288.65 3.27374 287.484 9.82123 285.988 16.3687L 0 16.3687C 2.99119 3.27374 12.2421 0.430756 12.2421 0.430756Z"/>
<path id="path3_fill" d="M 0 62.3632L 0 0L 7.47799 0L 8.97358 62.3632C 11.9648 86.7542 80.7622 86.7542 83.7534 62.3632L 85.249 0L 92.727 0L 92.727 62.3632C 85.249 103.123 7.47799 104.76 0 62.3632Z"/>
<path id="path4_fill" d="M 75.4787 68.7486C 75.4787 106.717 82.9567 137.497 38.0888 137.497C -6.77912 137.497 0.69886 106.717 0.69886 68.7486C 0.69886 30.7798 -8.27471 0 38.0888 0C 84.4523 0 75.4787 30.7798 75.4787 68.7486Z"/>
<path id="path5_fill" d="M 0 0L 68.7975 0L 68.7975 6.54749L 0 6.54749L 0 0Z"/>
<path id="path6_fill" d="M 0 0L 5.98239 0L 5.98239 16.3687L 0 16.3687L 0 0Z"/>
<path id="path7_fill" d="M 0 0L 5.98239 0L 5.98239 22.9162L 0 22.9162L 0 0Z"/>
<path id="path8_fill" d="M 32.9031 24.5531L 32.9031 0L 59.8239 0L 59.8239 24.5531L 56.8327 24.5531L 56.8327 40.9218L 92.727 40.9218L 92.727 57.2905L 0 57.2905L 0 40.9218L 35.8943 40.9218L 35.8943 24.5531L 32.9031 24.5531Z"/>
<path id="path9_fill" d="M 77.771 32.7374L 74.7799 32.7374L 74.7799 29.4637L 68.7975 29.4637L 58.3283 19.6425C 58.3283 19.6425 53.8415 27.8268 47.8591 29.4637C 41.8767 31.1006 20.9384 26.1899 2.99119 29.4637L 0 27.8268L 0 22.9162L 5.98239 13.095C 5.98239 13.095 9.69826 10.1999 11.9648 8.18436C 13.992 6.38165 24.1191 4.91061 25.4252 4.91061C 35.8943 4.91061 35.5228 1.99491e-06 44.8679 1.9946e-06C 46.3635 1.99455e-06 49.3321 1.63687 49.3547 1.63687C 49.3773 1.63687 51.315 2.39619 52.3459 3.27375L 56.8327 6.54749L 58.3283 8.18436L 59.8239 11.4581L 59.8239 16.3687L 64.3107 19.6425L 67.3019 22.9162L 70.2931 26.1899L 74.7799 26.1899L 74.7799 19.6425L 77.771 14.7318L 77.771 32.7374Z"/>
<path id="path10_fill" d="M 0.104537 42.6634C -2.28842 5.99744 36.9959 -0.986545 56.9372 0.104703C 100.01 0.104703 107.788 26.2946 107.788 42.6634C 107.788 67.2164 86.8492 113.049 56.9372 113.049C 19.5473 113.049 3.09573 88.4958 0.104537 42.6634Z"/>
<path id="path11_fill" d="M 28.8585 7.92403C 28.8585 12.3003 22.3983 15.8481 14.4292 15.8481C 6.46019 15.8481 0 12.3003 0 7.92403C 0 3.54771 6.46019 0 14.4292 0C 22.3983 0 28.8585 3.54771 28.8585 7.92403Z"/>
<path id="path12_fill" d="M 0 112.944C 26.9207 68.7486 11.9648 19.6425 0 0C 40.6802 0 52.3459 21.2793 50.8503 40.9218C 50.8503 83.4804 17.9472 116.218 0 112.944Z"/>
</defs>
</svg>
